<svg viewBox="0 0 982 1024" fill="currentColor" width="30.6875" height="32" xmlns="http://www.w3.org/2000/svg" xmlns:xlink="http://www.w3.org/1999/xlink">
    <path transform="matrix(1, 0, 0, -1, 0, 960)" d="M45.273 960h891.673l38.314-24.382 6.966-13.932V385.289l-52.246-38.314H522.458l3.483-27.865h139.324l17.415-6.966 6.966-31.348-6.966-17.415-17.415-6.966h-348.31q-24.382 6.966-17.415 45.28l24.382 17.415h142.807l-3.483 27.865H59.207l-27.865 6.966-31.348 31.348v536.397l17.415 24.382zM62.689 897.304V416.637h856.842v480.667zM45.273 165.854q90.561 17.415 114.942-31.348l6.966-38.314h-59.213l-3.483 10.449q-3.483 20.899-31.348 17.415L55.722 99.674Q89.16 69.719 142.799 61.36l24.382-24.382q12.539-75.235-31.348-94.044l-83.594-6.966-45.28 31.348-6.966 45.28h52.246L62.688 2.147 73.137-15.268q31.348-6.966 38.314 10.449l-10.449 24.382-62.696 20.899L6.958 64.844l-6.966 55.73 13.932 31.348zM195.046 165.854h135.841l3.483-3.483v-38.314h-80.111l-10.449-10.449q-6.966-31.348 10.449-38.314h66.179V33.497h-66.179L243.81 23.048v-87.077h-48.763zM362.235 165.854h114.942l45.28-31.348q16.022-22.292 6.966-69.662l-24.382-31.348-17.415-10.449 41.797-62.696v-24.382h-52.246l-17.415 17.415-38.314 66.179-10.449-3.483v-80.111h-48.763zM424.931 124.057l-13.932-13.932Q390.1 47.429 459.762 68.328q20.899 6.966 13.932 27.865-13.932 27.865-48.763 27.864zM585.153 165.854H818.52l3.483-17.415 52.246-135.841 55.73 153.256h52.246v-24.382L905.597-64.031h-59.213l-10.449 10.449-73.145 198.537-3.483-20.899h-52.246l-10.449-10.449V-60.548l-3.483-3.483h-45.28v184.604l-3.483 3.483h-59.213zM31.341 960l10.449-3.483-34.831-20.899-3.483-10.449-3.483 10.449zM943.912 960l38.314-24.382-3.483-10.449-13.932 20.899q-26.472 2.09-20.899 13.932zM62.689 897.304h856.842V416.637H62.689zM69.655 890.338V423.603h842.909v466.735zM3.476 381.806l27.865-27.865 27.865-6.966h407.522l-3.483-27.865H323.921l-24.382-17.415q-6.966-38.314 17.415-45.28h348.31l17.415 6.966 6.966 31.348-6.966 17.415-17.415 6.966H522.457l3.483 27.865h404.039l48.763 34.831-27.865-34.831-20.899-6.966H529.422l3.483-13.932h132.358l24.382-17.415 6.966-27.865-17.415-24.382-13.932-6.966h-348.31q-31.348 6.966-24.382 52.246l31.348 24.382h135.841l-3.483 13.932H59.205l-27.865 6.966zM45.273 172.82q97.527 17.415 121.908-38.314l6.966-34.831-10.449-10.449h-55.73l-20.899 27.865-24.382-10.449Q57.811 90.62 73.136 96.193l69.662-27.865 31.348-31.348q12.539-82.201-38.314-101.01l-17.415 3.483 41.797 27.865q16.022 22.292 6.966 69.662l-24.382 24.382q-53.64 8.359-87.077 38.314l17.415 24.382q27.865 3.483 31.348-17.415l3.483-10.449h59.213q2.09 45.28-31.348 62.696l-13.932 6.966H45.272l-31.348-13.932-10.449-27.865-3.483 10.449 17.415 24.382zM198.53 172.82h132.358l10.449-10.449q9.056-36.921-10.449-45.28h-80.111V82.26h66.179l10.449-10.449q9.056-36.921-10.449-45.28h-66.179v-87.077h-6.966v83.594l10.449 10.449h66.179v41.797H254.26l-10.449 10.449q-6.966 31.348 10.449 38.314h80.111v41.797H195.047V-60.547h-6.966v222.918zM365.718 172.82h111.459l52.246-38.314q16.022-22.292 6.966-69.662L505.041 26.53l-10.449-3.483 41.797-62.696v-20.899h-6.966v20.899l-41.797 62.696 34.831 27.865q16.022 22.292 6.966 69.662l-31.348 38.314-20.899 6.966H362.234L358.751-64.03l-3.483 226.401zM588.636 172.82H818.52l10.449-10.449L863.8 43.946l10.449-10.449 38.314 121.908 17.415 17.415 52.246-3.483-52.246-3.483-10.449-10.449-45.28-142.807-52.246 153.256H588.636l-3.483-3.483v-38.314h59.213l3.483-3.483V-60.547h-6.966v174.155l-3.483 3.483h-48.763q-18.809 8.359-10.449 45.28zM762.791 144.955 842.902-60.548 828.97-53.582 762.791 124.056l-6.966-6.966h-52.246l-3.483-181.121-3.483 177.638 10.449 10.449h52.246zM978.743 137.989l3.483-10.449-73.145-191.57-3.483 10.449zM421.448 124.057q39.011 0.697 52.246-24.382 3.483-27.865-17.415-31.348-67.572-22.988-45.28 45.28zM417.965 117.091V75.294h41.797l6.966 20.899zM3.476 75.293 24.375 47.428q54.336-9.056 87.077-38.314l-10.449-24.382Q69.655-22.234 62.689-4.819L52.24 12.596-6e-3 16.079 52.24 19.562 69.655-8.303h34.831v20.899L24.375 40.461-7e-3 64.843zM410.998 19.564 431.897 9.115l41.797-69.662-20.899 13.932-31.348 59.213-6.966-76.628zM3.476-22.233 24.375-50.098 48.757-60.547 38.308-64.03-6e-3-32.682z" />
</svg>