<?xml version="1.0" standalone="no"?>
<!DOCTYPE svg PUBLIC "-//W3C//DTD SVG 20010904//EN"
 "http://www.w3.org/TR/2001/REC-SVG-20010904/DTD/svg10.dtd">
<svg version="1.0" xmlns="http://www.w3.org/2000/svg"
 width="512.000000pt" height="512.000000pt" viewBox="0 0 512.000000 512.000000"
 preserveAspectRatio="xMidYMid meet">

<g transform="translate(0.000000,512.000000) scale(0.100000,-0.100000)"
fill="#000000" stroke="none">
<path d="M3872 4700 c-62 -38 -91 -125 -60 -183 6 -12 58 -71 116 -132 133
-138 205 -228 304 -379 212 -324 344 -680 404 -1091 22 -149 25 -522 5 -665
-57 -416 -193 -791 -399 -1105 -101 -154 -181 -254 -308 -385 -56 -58 -106
-115 -113 -127 -19 -37 -14 -117 10 -147 45 -57 119 -72 187 -37 50 26 260
243 350 364 251 334 426 725 515 1153 47 221 60 361 60 614 0 429 -67 765
-227 1145 -112 262 -235 470 -404 682 -101 126 -247 274 -294 296 -48 23 -106
21 -146 -3z"/>
<path d="M3407 4238 c-38 -22 -77 -86 -77 -124 1 -41 40 -103 95 -150 132
-113 315 -362 411 -559 310 -640 238 -1409 -185 -1975 -31 -41 -108 -129 -172
-195 -129 -134 -150 -170 -130 -235 6 -21 27 -52 46 -69 29 -25 44 -31 83 -31
67 0 114 33 252 176 314 328 501 721 565 1189 51 378 6 786 -124 1114 -121
303 -251 508 -462 726 -150 155 -215 183 -302 133z"/>
<path d="M2961 3772 c-47 -23 -72 -61 -78 -114 -7 -62 11 -91 112 -184 357
-324 492 -823 343 -1274 -62 -189 -164 -347 -324 -505 -119 -117 -141 -155
-124 -214 28 -100 117 -139 209 -91 93 47 284 260 385 428 146 243 218 570
195 883 -28 378 -177 699 -445 960 -129 125 -194 152 -273 111z"/>
<path d="M470 3766 c-89 -24 -154 -78 -192 -161 l-23 -50 0 -965 c0 -960 0
-965 21 -1011 31 -66 78 -114 142 -146 l57 -28 413 -3 414 -3 -7 68 c-20 190
-94 358 -212 484 -147 156 -309 234 -530 255 l-73 7 0 80 0 80 73 -7 c217 -20
388 -90 567 -234 198 -158 335 -411 365 -674 l6 -58 116 0 116 0 -7 83 c-16
198 -87 395 -203 570 -54 81 -181 217 -256 276 -190 146 -431 242 -656 261
-68 5 -107 13 -112 22 -5 7 -8 42 -7 78 l3 65 85 -3 c107 -4 253 -33 367 -73
525 -186 897 -640 964 -1179 l13 -97 379 -6 c209 -4 382 -5 384 -3 2 2 -23 53
-55 112 l-60 109 -53 7 c-30 3 -129 6 -221 7 l-167 1 -11 58 c-36 175 -131
397 -239 557 -63 94 -171 219 -256 297 -211 193 -508 346 -786 407 -81 17
-272 41 -332 41 -17 0 -18 14 -15 255 3 250 3 255 26 277 l23 23 1017 -4 c981
-3 1018 -2 1033 15 9 11 39 62 67 115 l52 96 -488 6 c-798 11 -1690 8 -1742
-7z m161 -1816 c93 -17 216 -85 289 -159 78 -79 123 -156 100 -171 -8 -5 -113
-10 -236 -10 -209 0 -223 1 -248 21 l-26 20 0 155 0 154 34 0 c18 0 58 -4 87
-10z"/>
</g>
</svg>
